<mxfile host="app.diagrams.net" modified="2021-01-26T17:04:18.648Z" agent="5.0 (Windows NT 10.0; Win64; x64) AppleWebKit/537.36 (KHTML, like Gecko) Chrome/88.0.4324.104 Safari/537.36" etag="nhHFTXIBqdSCLjoaqran" version="14.2.7" type="github">
  <diagram id="kgpKYQtTHZ0yAKxKKP6v" name="Page-1">
    <mxGraphModel dx="2297" dy="1903" grid="0" gridSize="10" guides="1" tooltips="1" connect="1" arrows="1" fold="1" page="1" pageScale="1" pageWidth="850" pageHeight="1100" math="0" shadow="0">
      <root>
        <mxCell id="0" />
        <mxCell id="1" parent="0" />
        <mxCell id="1lLUUwZVL3nf90PuxBVF-39" style="edgeStyle=orthogonalEdgeStyle;rounded=0;orthogonalLoop=1;jettySize=auto;html=1;exitX=0.5;exitY=1;exitDx=0;exitDy=0;entryX=0.5;entryY=0;entryDx=0;entryDy=0;" edge="1" parent="1" source="1lLUUwZVL3nf90PuxBVF-9" target="1lLUUwZVL3nf90PuxBVF-19">
          <mxGeometry relative="1" as="geometry" />
        </mxCell>
        <mxCell id="1lLUUwZVL3nf90PuxBVF-9" value="&lt;font style=&quot;font-size: 14px&quot;&gt;Модуль керування та взаємодії з користувачем підсистеми&lt;/font&gt;" style="shape=ext;rounded=1;html=1;whiteSpace=wrap;strokeWidth=2;" vertex="1" parent="1">
          <mxGeometry x="270" y="40" width="450" height="50" as="geometry" />
        </mxCell>
        <mxCell id="1lLUUwZVL3nf90PuxBVF-13" value="" style="shape=actor;whiteSpace=wrap;html=1;" vertex="1" parent="1">
          <mxGeometry x="250" y="10" width="40" height="60" as="geometry" />
        </mxCell>
        <mxCell id="1lLUUwZVL3nf90PuxBVF-14" style="edgeStyle=orthogonalEdgeStyle;rounded=0;orthogonalLoop=1;jettySize=auto;html=1;exitX=0.5;exitY=1;exitDx=0;exitDy=0;" edge="1" parent="1" source="1lLUUwZVL3nf90PuxBVF-9" target="1lLUUwZVL3nf90PuxBVF-9">
          <mxGeometry relative="1" as="geometry" />
        </mxCell>
        <mxCell id="1lLUUwZVL3nf90PuxBVF-49" style="edgeStyle=orthogonalEdgeStyle;rounded=0;orthogonalLoop=1;jettySize=auto;html=1;exitX=0.5;exitY=1;exitDx=0;exitDy=0;entryX=0.5;entryY=0;entryDx=0;entryDy=0;" edge="1" parent="1" source="1lLUUwZVL3nf90PuxBVF-17" target="1lLUUwZVL3nf90PuxBVF-20">
          <mxGeometry relative="1" as="geometry" />
        </mxCell>
        <mxCell id="1lLUUwZVL3nf90PuxBVF-17" value="&lt;font style=&quot;font-size: 14px&quot;&gt;Модуль отримання вхідних параметрів телеметрії мережі&lt;/font&gt;" style="shape=ext;rounded=1;html=1;whiteSpace=wrap;strokeWidth=2;" vertex="1" parent="1">
          <mxGeometry x="50" y="110" width="180" height="80" as="geometry" />
        </mxCell>
        <mxCell id="1lLUUwZVL3nf90PuxBVF-41" style="edgeStyle=orthogonalEdgeStyle;rounded=0;orthogonalLoop=1;jettySize=auto;html=1;exitX=0.5;exitY=0;exitDx=0;exitDy=0;entryX=0.5;entryY=1;entryDx=0;entryDy=0;" edge="1" parent="1" source="1lLUUwZVL3nf90PuxBVF-19" target="1lLUUwZVL3nf90PuxBVF-9">
          <mxGeometry relative="1" as="geometry" />
        </mxCell>
        <mxCell id="1lLUUwZVL3nf90PuxBVF-19" value="&lt;font style=&quot;font-size: 14px&quot;&gt;Інформаційна система&lt;/font&gt;" style="html=1;strokeWidth=2;" vertex="1" parent="1">
          <mxGeometry x="270" y="120" width="450" height="45" as="geometry" />
        </mxCell>
        <mxCell id="1lLUUwZVL3nf90PuxBVF-20" value="&lt;font style=&quot;font-size: 14px&quot;&gt;Модуль виявлення (розпізнавання) кібератак&lt;/font&gt;" style="shape=ext;rounded=1;html=1;whiteSpace=wrap;strokeWidth=2;" vertex="1" parent="1">
          <mxGeometry x="50" y="241" width="180" height="80" as="geometry" />
        </mxCell>
        <mxCell id="1lLUUwZVL3nf90PuxBVF-21" value="&lt;span style=&quot;font-size: 14px&quot;&gt;&amp;nbsp; Система&lt;br&gt;&amp;nbsp; нечіткого &lt;br&gt;&amp;nbsp; керування&lt;/span&gt;" style="shape=ext;rounded=1;html=1;whiteSpace=wrap;dashed=1;dashPattern=1 4;strokeWidth=2;align=left;" vertex="1" parent="1">
          <mxGeometry x="310" y="200" width="530" height="320" as="geometry" />
        </mxCell>
        <mxCell id="1lLUUwZVL3nf90PuxBVF-51" style="edgeStyle=orthogonalEdgeStyle;rounded=0;orthogonalLoop=1;jettySize=auto;html=1;exitX=0.5;exitY=1;exitDx=0;exitDy=0;entryX=0.456;entryY=0.008;entryDx=0;entryDy=0;entryPerimeter=0;" edge="1" parent="1" source="1lLUUwZVL3nf90PuxBVF-22" target="1lLUUwZVL3nf90PuxBVF-24">
          <mxGeometry relative="1" as="geometry" />
        </mxCell>
        <mxCell id="1lLUUwZVL3nf90PuxBVF-22" value="&lt;font style=&quot;font-size: 14px&quot;&gt;Модуль приведення до нечітких значень(фазифікація)&lt;/font&gt;" style="shape=ext;rounded=1;html=1;whiteSpace=wrap;strokeWidth=2;" vertex="1" parent="1">
          <mxGeometry x="420" y="210" width="175" height="80" as="geometry" />
        </mxCell>
        <mxCell id="1lLUUwZVL3nf90PuxBVF-52" style="edgeStyle=orthogonalEdgeStyle;rounded=0;orthogonalLoop=1;jettySize=auto;html=1;exitX=0.5;exitY=1;exitDx=0;exitDy=0;entryX=0.5;entryY=0;entryDx=0;entryDy=0;" edge="1" parent="1" source="1lLUUwZVL3nf90PuxBVF-24" target="1lLUUwZVL3nf90PuxBVF-25">
          <mxGeometry relative="1" as="geometry" />
        </mxCell>
        <mxCell id="1lLUUwZVL3nf90PuxBVF-24" value="&lt;font style=&quot;font-size: 14px&quot;&gt;Модуль нечіткого логічного виводу&lt;/font&gt;" style="shape=ext;rounded=1;html=1;whiteSpace=wrap;strokeWidth=2;" vertex="1" parent="1">
          <mxGeometry x="423" y="310" width="175" height="80" as="geometry" />
        </mxCell>
        <mxCell id="1lLUUwZVL3nf90PuxBVF-25" value="&lt;font style=&quot;font-size: 14px&quot;&gt;Модуль приведення до чітких значень(дефазифікація)&lt;/font&gt;" style="shape=ext;rounded=1;html=1;whiteSpace=wrap;strokeWidth=2;" vertex="1" parent="1">
          <mxGeometry x="425" y="410" width="175" height="80" as="geometry" />
        </mxCell>
        <mxCell id="1lLUUwZVL3nf90PuxBVF-26" value="&lt;span lang=&quot;UK&quot; style=&quot;line-height: 150% ; font-family: &amp;#34;times new roman&amp;#34; , serif&quot;&gt;&lt;font style=&quot;font-size: 14px&quot;&gt;БЗ нечітких правил аналізу телеметрії мережевого трафіку&amp;nbsp;&lt;/font&gt;&lt;/span&gt;" style="shape=datastore;whiteSpace=wrap;html=1;strokeWidth=2;" vertex="1" parent="1">
          <mxGeometry x="680" y="206" width="130" height="150" as="geometry" />
        </mxCell>
        <mxCell id="1lLUUwZVL3nf90PuxBVF-31" value="&lt;span lang=&quot;UK&quot; style=&quot;line-height: 150% ; font-family: &amp;#34;times new roman&amp;#34; , serif&quot;&gt;&lt;font style=&quot;font-size: 14px&quot;&gt;БЗ нечітких правил аналізу телеметрії мережевого трафіку для поліморфних кібератак&amp;nbsp;&lt;/font&gt;&lt;/span&gt;" style="shape=datastore;whiteSpace=wrap;html=1;strokeWidth=2;" vertex="1" parent="1">
          <mxGeometry x="680" y="360" width="130" height="150" as="geometry" />
        </mxCell>
        <mxCell id="1lLUUwZVL3nf90PuxBVF-69" style="edgeStyle=orthogonalEdgeStyle;rounded=0;orthogonalLoop=1;jettySize=auto;html=1;exitX=0;exitY=0.5;exitDx=0;exitDy=0;entryX=1.007;entryY=0.667;entryDx=0;entryDy=0;entryPerimeter=0;" edge="1" parent="1" source="1lLUUwZVL3nf90PuxBVF-32" target="1lLUUwZVL3nf90PuxBVF-33">
          <mxGeometry relative="1" as="geometry" />
        </mxCell>
        <mxCell id="1lLUUwZVL3nf90PuxBVF-84" value="&lt;span style=&quot;font-size: 14px&quot;&gt;результати виявлення вторгнень&lt;/span&gt;" style="edgeLabel;html=1;align=center;verticalAlign=middle;resizable=0;points=[];" vertex="1" connectable="0" parent="1lLUUwZVL3nf90PuxBVF-69">
          <mxGeometry x="-0.2438" y="2" relative="1" as="geometry">
            <mxPoint x="-21.57" y="-15" as="offset" />
          </mxGeometry>
        </mxCell>
        <mxCell id="1lLUUwZVL3nf90PuxBVF-32" value="&lt;span style=&quot;font-size: 14px&quot;&gt;Модуль прийняття рішення про стан мережі&lt;/span&gt;" style="shape=ext;rounded=1;html=1;whiteSpace=wrap;strokeWidth=2;" vertex="1" parent="1">
          <mxGeometry x="485" y="561" width="180" height="80" as="geometry" />
        </mxCell>
        <mxCell id="1lLUUwZVL3nf90PuxBVF-33" value="&lt;font style=&quot;font-size: 14px&quot;&gt;Модуль збереження даних&lt;/font&gt;" style="strokeWidth=2;html=1;shape=mxgraph.flowchart.database;whiteSpace=wrap;" vertex="1" parent="1">
          <mxGeometry x="70" y="500" width="140" height="150" as="geometry" />
        </mxCell>
        <mxCell id="1lLUUwZVL3nf90PuxBVF-34" value="&lt;font style=&quot;font-size: 14px&quot;&gt;інформація&amp;nbsp;&lt;br&gt;керування&lt;/font&gt;" style="html=1;verticalAlign=bottom;endArrow=block;exitX=0.75;exitY=1;exitDx=0;exitDy=0;entryX=0.5;entryY=0;entryDx=0;entryDy=0;" edge="1" parent="1" source="1lLUUwZVL3nf90PuxBVF-13" target="1lLUUwZVL3nf90PuxBVF-17">
          <mxGeometry width="80" relative="1" as="geometry">
            <mxPoint x="110" y="68.82" as="sourcePoint" />
            <mxPoint x="190" y="68.82" as="targetPoint" />
            <Array as="points">
              <mxPoint x="140" y="70" />
            </Array>
          </mxGeometry>
        </mxCell>
        <mxCell id="1lLUUwZVL3nf90PuxBVF-47" value="" style="endArrow=block;startArrow=block;endFill=1;startFill=1;html=1;" edge="1" parent="1">
          <mxGeometry width="160" relative="1" as="geometry">
            <mxPoint x="230" y="142.3" as="sourcePoint" />
            <mxPoint x="270" y="142" as="targetPoint" />
          </mxGeometry>
        </mxCell>
        <mxCell id="1lLUUwZVL3nf90PuxBVF-53" value="" style="endArrow=block;startArrow=block;endFill=1;startFill=1;html=1;entryX=0;entryY=0.5;entryDx=0;entryDy=0;exitX=1.006;exitY=0.492;exitDx=0;exitDy=0;exitPerimeter=0;" edge="1" parent="1" source="1lLUUwZVL3nf90PuxBVF-24" target="1lLUUwZVL3nf90PuxBVF-26">
          <mxGeometry width="160" relative="1" as="geometry">
            <mxPoint x="603" y="349" as="sourcePoint" />
            <mxPoint x="760" y="340" as="targetPoint" />
          </mxGeometry>
        </mxCell>
        <mxCell id="1lLUUwZVL3nf90PuxBVF-56" value="" style="endArrow=block;startArrow=block;endFill=1;startFill=1;html=1;entryX=0;entryY=0.5;entryDx=0;entryDy=0;exitX=1;exitY=0.5;exitDx=0;exitDy=0;" edge="1" parent="1" source="1lLUUwZVL3nf90PuxBVF-24" target="1lLUUwZVL3nf90PuxBVF-31">
          <mxGeometry width="160" relative="1" as="geometry">
            <mxPoint x="602" y="350" as="sourcePoint" />
            <mxPoint x="680" y="310" as="targetPoint" />
          </mxGeometry>
        </mxCell>
        <mxCell id="1lLUUwZVL3nf90PuxBVF-75" value="&lt;font style=&quot;font-size: 14px&quot;&gt;параметри&amp;nbsp;&lt;br&gt;телеметрії&lt;br&gt;мережевого&lt;br&gt;травіку&lt;/font&gt;" style="html=1;verticalAlign=bottom;endArrow=block;entryX=-0.015;entryY=0.437;entryDx=0;entryDy=0;entryPerimeter=0;exitX=-0.004;exitY=0.625;exitDx=0;exitDy=0;exitPerimeter=0;" edge="1" parent="1" source="1lLUUwZVL3nf90PuxBVF-17" target="1lLUUwZVL3nf90PuxBVF-33">
          <mxGeometry x="0.0174" y="-46" width="80" relative="1" as="geometry">
            <mxPoint x="45" y="160" as="sourcePoint" />
            <mxPoint x="126.06000000000017" y="489.9999999999999" as="targetPoint" />
            <Array as="points">
              <mxPoint y="160" />
              <mxPoint y="566" />
            </Array>
            <mxPoint as="offset" />
          </mxGeometry>
        </mxCell>
        <mxCell id="1lLUUwZVL3nf90PuxBVF-78" value="" style="endArrow=block;startArrow=block;endFill=1;startFill=1;html=1;entryX=-0.005;entryY=0.671;entryDx=0;entryDy=0;entryPerimeter=0;exitX=0;exitY=0.75;exitDx=0;exitDy=0;" edge="1" parent="1" source="1lLUUwZVL3nf90PuxBVF-9" target="1lLUUwZVL3nf90PuxBVF-33">
          <mxGeometry width="160" relative="1" as="geometry">
            <mxPoint x="270" y="117.85" as="sourcePoint" />
            <mxPoint x="70" y="602.14" as="targetPoint" />
            <Array as="points">
              <mxPoint x="-160" y="78" />
              <mxPoint x="-160" y="601.85" />
            </Array>
          </mxGeometry>
        </mxCell>
        <mxCell id="1lLUUwZVL3nf90PuxBVF-80" value="&lt;font face=&quot;times new roman, serif&quot;&gt;&lt;span style=&quot;font-size: 14px&quot;&gt;БЗ KDD99&lt;/span&gt;&lt;/font&gt;" style="shape=datastore;whiteSpace=wrap;html=1;strokeWidth=2;" vertex="1" parent="1">
          <mxGeometry x="-150" y="102.5" width="70" height="80" as="geometry" />
        </mxCell>
        <mxCell id="1lLUUwZVL3nf90PuxBVF-83" value="&lt;font style=&quot;font-size: 14px&quot;&gt;вектори вхідних&lt;br&gt;&amp;nbsp;даних&lt;/font&gt;" style="html=1;verticalAlign=bottom;endArrow=block;entryX=0;entryY=0.5;entryDx=0;entryDy=0;exitX=1;exitY=0.594;exitDx=0;exitDy=0;exitPerimeter=0;" edge="1" parent="1" source="1lLUUwZVL3nf90PuxBVF-80" target="1lLUUwZVL3nf90PuxBVF-17">
          <mxGeometry width="80" relative="1" as="geometry">
            <mxPoint x="-39" y="150" as="sourcePoint" />
            <mxPoint x="70" y="150" as="targetPoint" />
          </mxGeometry>
        </mxCell>
        <mxCell id="1lLUUwZVL3nf90PuxBVF-85" value="&lt;font style=&quot;font-size: 14px&quot;&gt;вхідні&amp;nbsp;&lt;br&gt;параметри&lt;/font&gt;" style="html=1;verticalAlign=bottom;endArrow=block;" edge="1" parent="1">
          <mxGeometry y="1" width="80" relative="1" as="geometry">
            <mxPoint x="230" y="280.65999999999997" as="sourcePoint" />
            <mxPoint x="310" y="280.65999999999997" as="targetPoint" />
            <mxPoint as="offset" />
          </mxGeometry>
        </mxCell>
        <mxCell id="1lLUUwZVL3nf90PuxBVF-86" value="&lt;font style=&quot;font-size: 14px&quot;&gt;вихідні&amp;nbsp;&lt;br&gt;параметри&lt;/font&gt;" style="html=1;verticalAlign=bottom;endArrow=block;exitX=0.5;exitY=1;exitDx=0;exitDy=0;entryX=0.5;entryY=0;entryDx=0;entryDy=0;" edge="1" parent="1" source="1lLUUwZVL3nf90PuxBVF-21" target="1lLUUwZVL3nf90PuxBVF-32">
          <mxGeometry x="0.9512" y="45" width="80" relative="1" as="geometry">
            <mxPoint x="575" y="528" as="sourcePoint" />
            <mxPoint x="575" y="558" as="targetPoint" />
            <mxPoint as="offset" />
          </mxGeometry>
        </mxCell>
        <mxCell id="1lLUUwZVL3nf90PuxBVF-90" value="&lt;font style=&quot;font-size: 14px&quot;&gt;дані про &lt;br&gt;виявлення атаки&lt;/font&gt;" style="html=1;verticalAlign=bottom;endArrow=block;exitX=0.5;exitY=1;exitDx=0;exitDy=0;entryX=0.5;entryY=0;entryDx=0;entryDy=0;entryPerimeter=0;" edge="1" parent="1" source="1lLUUwZVL3nf90PuxBVF-20" target="1lLUUwZVL3nf90PuxBVF-33">
          <mxGeometry x="0.3296" y="60" width="80" relative="1" as="geometry">
            <mxPoint x="170" y="370" as="sourcePoint" />
            <mxPoint x="250" y="370" as="targetPoint" />
            <mxPoint as="offset" />
          </mxGeometry>
        </mxCell>
        <mxCell id="1lLUUwZVL3nf90PuxBVF-91" value="Text" style="text;html=1;align=center;verticalAlign=middle;resizable=0;points=[];autosize=1;" vertex="1" parent="1">
          <mxGeometry x="-20" y="-10" width="40" height="20" as="geometry" />
        </mxCell>
      </root>
    </mxGraphModel>
  </diagram>
</mxfile>
